# xmcd CD database file
#
# Track frame offsets:
#	150
#	16911
#	28574
#	41056
#	53873
#	69703
#	86763
#	101569
#	117690
#	133280
#	148608
#	165639
#	180808
#	196003
#	213666
#	225617
#	237759
#	250401
#	266222
#	281206
#
# Disc length: 4006 seconds
#
# Revision: 0
# Processed by: cddbd v1.5.2PL0 Copyright (c) Steve Scherf et al.
# Submitted via: CDex 1.51
#
DISCID=2b0fa414
DTITLE=Vários - EXPLOSÃO SERTANEJA - 2006
DYEAR=2006
DGENRE=Country
TTITLE0=Alô meu povo - Guilherme e Santiago
TTITLE1=Nóis gosta de muié - Gilberto e Gilmar
TTITLE2=Vício dominador - Pedro e Thiago
TTITLE3=Clube do Batidão - Rionegro e Solimões
TTITLE4=Bebo pa carai - Gino e Geno
TTITLE5=Fera mansa - Zezé di Camargo e Luciano
TTITLE6=Galera coração - Edson e Hudson
TTITLE7=Brega demais - Rick e Renner
TTITLE8=Que pescar que nada - Bruno e Marrone
TTITLE9=Eu me enganei - Ataíde e Alexandre
TTITLE10=Balança Brasil - Jad e Jeferson
TTITLE11=Tremelé - Zé Henrique e Gabriel
TTITLE12=De bad boy a peão - Juliano César
TTITLE13=Sistema bruto - Chitãozinho e Xororó
TTITLE14=Oito segundos - Hugo e Tiago
TTITLE15=Castiga o fole - Adalberto e Adriano
TTITLE16=Cheguei galera - Pedro Paulo e Fabiano
TTITLE17=Amor ou paixão - Tânnia Mara
TTITLE18=Que tesouro - João Pedro e Cristiano
TTITLE19=Coração aventureiro - Marlon e Maicon
EXTD=YEAR: 2006
EXTT0=
EXTT1=
EXTT2=
EXTT3=
EXTT4=
EXTT5=
EXTT6=
EXTT7=
EXTT8=
EXTT9=
EXTT10=
EXTT11=
EXTT12=
EXTT13=
EXTT14=
EXTT15=
EXTT16=
EXTT17=
EXTT18=
EXTT19=
PLAYORDER=
